<?xml version="1.0" encoding="UTF-8" standalone="no"?>
<svg
   xmlns:dc="http://purl.org/dc/elements/1.1/"
   xmlns:cc="http://creativecommons.org/ns#"
   xmlns:rdf="http://www.w3.org/1999/02/22-rdf-syntax-ns#"
   xmlns:svg="http://www.w3.org/2000/svg"
   xmlns="http://www.w3.org/2000/svg"
   xmlns:xlink="http://www.w3.org/1999/xlink"
   xml:space="preserve"
   viewBox="0 0 48 47.999999"
   height="48"
   width="48"
   y="0px"
   x="0px"
   id="Capa_1"
   version="1.1"><metadata
     id="metadata5132"><rdf:RDF><cc:Work
         rdf:about=""><dc:format>image/svg+xml</dc:format><dc:type
           rdf:resource="http://purl.org/dc/dcmitype/StillImage" /><dc:title></dc:title></cc:Work></rdf:RDF></metadata><defs
     id="defs5130"><linearGradient
       id="linearGradient5736"><stop
         id="stop5732"
         offset="0"
         style="stop-color:#000000;stop-opacity:1;" /><stop
         id="stop5734"
         offset="1"
         style="stop-color:#000000;stop-opacity:0;" /></linearGradient><linearGradient
       gradientUnits="userSpaceOnUse"
       y2="214.48703"
       x2="418.559"
       y1="214.48703"
       x1="10.419"
       id="linearGradient5740"
       xlink:href="#linearGradient5736" /></defs><g
     style="fill:none;fill-opacity:1;stroke:#ffffff;stroke-width:13.78612827;stroke-linecap:square;stroke-linejoin:miter;stroke-miterlimit:4;stroke-dasharray:none;stroke-opacity:1;paint-order:stroke fill markers"
     transform="matrix(0.07979035,0,0,0.07979035,23.801671,20.080314)"
     id="g4511"><path
       id="path4509"
       d="m -15.872865,-48.429357 c -0.363775,0.0015 -0.85306,0.09909 -1.490395,0.333707 -9.512887,3.500087 -34.854165,12.753342 -41.219565,17.551129 -5.697003,4.293422 -9.459934,9.708942 -9.965658,17.106228 l 0.02221,30.564319 c 0,1.344965 -0.56688,2.707754 -1.223461,2.936304 -2.377765,0.82379 -2.436318,2.455481 -2.113254,4.582426 l 3.092024,16.216437 c 0.786979,2.906213 2.328963,5.613957 2.758351,8.564235 0.851956,5.868759 2.864472,11.005868 6.562207,15.437875 0.612051,0.73108 1.071895,1.776279 1.001019,2.936315 l -1.267951,13.547065 c -0.113096,0.879711 -1.001771,2.141227 -1.690604,2.335699 -2.173294,0.613429 -3.225806,2.937865 -3.892834,5.272016 l -2.224446,6.962566 -48.293398,25.536996 c -1.24591,0.65839 -2.02428,1.95038 -2.02428,3.35896 v 17.8848 c 0,2.09968 1.70372,3.80385 3.80386,3.80385 h 102.882074 c -0.0098,0.0626 -0.03531,0.11503 -0.04442,0.17802 h 68.558395 0.133483 65.323668 c -0.0877,-12.9792 0.30296,-19.67889 -1.61849,-20.68395 -6.81024,-2.51634 -27.721774,-6.71576 -34.34208,-9.72466 -1.886573,-0.85146 -3.274362,-2.72496 -4.982829,-4.02631 -0.753403,-0.5698 -1.658479,-1.12708 -2.558144,-1.26795 -3.068876,-0.48803 -4.429239,-1.57304 -5.160787,-4.60466 -0.954198,-3.97491 -1.630507,-7.941336 -0.800783,-12.078906 0.35808,-1.805709 1.024014,-2.964766 2.7806,-3.648148 3.644117,-1.420385 7.210467,-3.014856 10.810962,-4.537928 2.689919,-1.138704 2.862262,-2.089906 1.89081,-4.871612 C 85.742733,72.451417 83.424971,63.526994 82.671613,54.141337 82.205448,48.214413 82.351004,42.168835 80.914275,36.34552 H 80.691841 C 80.577948,35.808399 80.521229,35.275493 80.380457,34.743896 77.776869,24.477652 66.736287,18.891154 57.490583,18.305003 c -0.07631,-0.0054 -0.146125,-0.01708 -0.222434,-0.02278 -0.710693,-0.03872 -1.38083,0.0467 -2.068768,0.08884 -3.909476,0.537121 -7.096425,3.008888 -10.788707,4.093038 -4.830963,1.420385 -7.798588,5.850206 -9.609741,10.633004 -2.553612,6.783879 -2.088244,14.010667 -2.647129,21.043551 -0.753404,9.386556 -3.03251,18.310079 -6.139563,27.094129 -0.975951,2.787161 -0.820487,3.73293 1.868566,4.871612 3.600496,1.523982 7.189089,3.117542 10.833206,4.537928 1.756632,0.683359 2.417087,1.842439 2.7806,3.648148 0.824246,4.132115 0.142481,8.093087 -0.800783,12.078897 -0.152731,0.62801 -0.362864,1.12834 -0.57835,1.60163 L 17.316591,95.916338 15.092108,88.953726 C 14.42458,86.619575 13.349872,84.295117 11.177028,83.68171 10.486835,83.487295 9.6213605,82.225688 9.5086745,81.346011 L 8.2184692,67.798946 c -0.070614,-1.160036 0.3884899,-2.205223 1.0010076,-2.936315 3.6986482,-4.432007 5.7315862,-9.569116 6.5844522,-15.437874 0.428922,-2.950735 1.947301,-5.658023 2.736103,-8.564236 l 3.114274,-16.216437 c 0.323115,-2.126945 0.241795,-3.758181 -2.135498,-4.582426 -0.655684,-0.228584 -1.223464,-1.307358 -1.223464,-2.936304 l 0.04442,-30.564319 c -0.504775,-7.397286 -4.432656,-13.124965 -9.987901,-17.106228 -10.611569,-7.605847 -29.603311,-4.077013 -23.401494,-16.48338 0.27471,-0.547599 0.268219,-1.406035 -0.823106,-1.401411 z"
       style="fill:none;fill-opacity:1;stroke:#ffffff;stroke-width:13.78612827;stroke-linecap:square;stroke-linejoin:round;stroke-miterlimit:4;stroke-dasharray:none;stroke-opacity:1;paint-order:stroke fill markers" /></g><g
     style="fill:url(#linearGradient5740);stroke:#00030a;stroke-width:22;stroke-miterlimit:4;stroke-dasharray:none;stroke-opacity:1;paint-order:stroke fill markers;stroke-linecap:square;stroke-linejoin:miter;fill-opacity:1"
     transform="matrix(0.03989517,0,0,0.03989517,3.9307019,21.399122)"
     id="g5095" /><g
     transform="translate(0,-380.97501)"
     id="g5097" /><g
     transform="translate(0,-380.97501)"
     id="g5099" /><g
     transform="translate(0,-380.97501)"
     id="g5101" /><g
     transform="translate(0,-380.97501)"
     id="g5103" /><g
     transform="translate(0,-380.97501)"
     id="g5105" /><g
     transform="translate(0,-380.97501)"
     id="g5107" /><g
     transform="translate(0,-380.97501)"
     id="g5109" /><g
     transform="translate(0,-380.97501)"
     id="g5111" /><g
     transform="translate(0,-380.97501)"
     id="g5113" /><g
     transform="translate(0,-380.97501)"
     id="g5115" /><g
     transform="translate(0,-380.97501)"
     id="g5117" /><g
     transform="translate(0,-380.97501)"
     id="g5119" /><g
     transform="translate(0,-380.97501)"
     id="g5121" /><g
     transform="translate(0,-380.97501)"
     id="g5123" /><g
     transform="translate(0,-380.97501)"
     id="g5125" /></svg>