<?xml version="1.0" encoding="iso-8859-1"?>
<!-- Generator: Adobe Illustrator 18.1.1, SVG Export Plug-In . SVG Version: 6.00 Build 0)  -->
<svg version="1.1" id="Capa_1" xmlns="http://www.w3.org/2000/svg" xmlns:xlink="http://www.w3.org/1999/xlink" x="0px" y="0px"
	 viewBox="0 0 151.039 151.039" style="enable-background:new 0 0 151.039 151.039;" xml:space="preserve">
<g>
	<path style="fill:#010002;" d="M130.048,122.003c-7.494-2.769-14.846-5.967-22.131-9.278c-2.076-0.937-3.61-3.019-5.49-4.451
		c-0.829-0.627-1.832-1.223-2.822-1.378c-3.377-0.537-4.869-1.736-5.674-5.072c-1.05-4.374-1.796-8.747-0.883-13.3
		c0.394-1.987,1.122-3.258,3.055-4.01c4.01-1.563,7.948-3.306,11.91-4.982c2.96-1.253,3.145-2.297,2.076-5.358
		c-3.401-9.666-5.943-19.488-6.772-29.816c-0.513-6.522-0.352-13.187-1.933-19.595h-0.245c-0.125-0.591-0.209-1.187-0.364-1.772
		C97.91,11.694,85.774,5.554,75.6,4.909c-0.084-0.006-0.161-0.024-0.245-0.03c-0.782-0.042-1.528,0.066-2.285,0.113
		c-4.302,0.591-7.811,3.306-11.874,4.499c-5.316,1.563-8.568,6.438-10.561,11.701c-2.81,7.465-2.297,15.424-2.912,23.163
		c-0.829,10.329-3.353,20.15-6.772,29.816c-1.074,3.067-0.883,4.105,2.076,5.358c3.962,1.677,7.9,3.419,11.91,4.982
		c1.933,0.752,2.655,2.023,3.055,4.01c0.907,4.547,0.161,8.914-0.877,13.3c-0.811,3.335-2.303,4.535-5.674,5.072
		c-0.991,0.155-1.993,0.746-2.822,1.378c-1.874,1.432-3.413,3.514-5.495,4.451c-7.286,3.318-14.631,6.51-22.131,9.278
		C9.475,126.258,1.874,133.657,0,146.169c25.15,0,50.289,0,75.439,0c0.06,0,0.119,0,0.161,0c25.15,0,50.289,0,75.439,0
		C149.172,133.657,141.558,126.258,130.048,122.003z"/>
</g>
<g>
</g>
<g>
</g>
<g>
</g>
<g>
</g>
<g>
</g>
<g>
</g>
<g>
</g>
<g>
</g>
<g>
</g>
<g>
</g>
<g>
</g>
<g>
</g>
<g>
</g>
<g>
</g>
<g>
</g>
</svg>
