<?xml version="1.0" encoding="iso-8859-1"?>
<!-- Generator: Adobe Illustrator 16.0.0, SVG Export Plug-In . SVG Version: 6.00 Build 0)  -->
<!DOCTYPE svg PUBLIC "-//W3C//DTD SVG 1.1//EN" "http://www.w3.org/Graphics/SVG/1.1/DTD/svg11.dtd">
<svg xmlns="http://www.w3.org/2000/svg" xmlns:xlink="http://www.w3.org/1999/xlink" version="1.1" id="Capa_1" x="0px" y="0px" width="512px" height="512px" viewBox="0 0 502.45 502.45" style="enable-background:new 0 0 502.45 502.45;" xml:space="preserve">
<g>
	<g id="_x33_">
		<g>
			<path d="M246.799,148.741c0.664,0,1.313,0.091,1.978,0.105l56.627-53.079c-52.521-11.941-115.534-6.643-162.257,18.841     c-35.281,19.277-61.187,33.182-83.122,54.105c-18.84,18.011-37.123,29.604-37.123,29.604S0,232.18,0,249.934     c0,17.542,22.706,51.162,22.706,51.162l33.031,28.669l86.05-80.646C144.384,193.246,190.338,148.741,246.799,148.741z      M496.783,227.636c-10.039-13.225-31.1-32.08-31.1-32.08s-5.299-5.042-14.417-12.953l-102.128,95.713     c-9.646,40.821-42.995,72.388-84.768,79.438l-52.4,49.108c40.896,5.027,97.886,3.382,146.905-22.796     c63.134-33.665,108.861-77.913,108.861-77.913s20.229-22.569,29.68-34.284C503.803,263.913,504.663,238.022,496.783,227.636z      M448.338,64.518c-11.201-11.443-29.559-11.609-40.987-0.407L67.935,396.944c-11.428,11.187-11.609,29.544-0.408,40.987     s29.559,11.609,40.987,0.407l339.417-332.834C459.374,94.303,459.555,75.961,448.338,64.518z" fill="#b6b6b6"/>
		</g>
	</g>
</g>
<g>
</g>
<g>
</g>
<g>
</g>
<g>
</g>
<g>
</g>
<g>
</g>
<g>
</g>
<g>
</g>
<g>
</g>
<g>
</g>
<g>
</g>
<g>
</g>
<g>
</g>
<g>
</g>
<g>
</g>
</svg>
