<?xml version="1.0" encoding="UTF-8" standalone="no"?>
<svg
   xmlns:dc="http://purl.org/dc/elements/1.1/"
   xmlns:cc="http://creativecommons.org/ns#"
   xmlns:rdf="http://www.w3.org/1999/02/22-rdf-syntax-ns#"
   xmlns:svg="http://www.w3.org/2000/svg"
   xmlns="http://www.w3.org/2000/svg"
   id="svg4"
   version="1.1"
   fill="#000000"
   focusable="false"
   viewBox="0 0 20 20"
   height="20px"
   width="20px"
   y="0px"
   x="0px"
   class="a-s-fa-Ha-pa">
  <metadata
     id="metadata10">
    <rdf:RDF>
      <cc:Work
         rdf:about="">
        <dc:format>image/svg+xml</dc:format>
        <dc:type
           rdf:resource="http://purl.org/dc/dcmitype/StillImage" />
        <dc:title></dc:title>
      </cc:Work>
    </rdf:RDF>
  </metadata>
  <defs
     id="defs8" />
  <path
     style="fill:#c2c2c2;fill-opacity:1"
     id="path2"
     d="M10,6c1.104,0,2-0.896,2-2s-0.896-2-2-2S8,2.895,8,4S8.896,6,10,6z M10,8c-1.104,0-2,0.896-2,2s0.896,2,2,2s2-0.896,2-2  S11.104,8,10,8z M10,14c-1.104,0-2,0.896-2,2s0.896,2,2,2s2-0.896,2-2S11.104,14,10,14z" />
</svg>
