<?xml version="1.0" encoding="UTF-8" standalone="no"?>
<svg
   xmlns:dc="http://purl.org/dc/elements/1.1/"
   xmlns:cc="http://creativecommons.org/ns#"
   xmlns:rdf="http://www.w3.org/1999/02/22-rdf-syntax-ns#"
   xmlns:svg="http://www.w3.org/2000/svg"
   xmlns="http://www.w3.org/2000/svg"
   height="48"
   width="48"
   xml:space="preserve"
   viewBox="0 0 34.112625 34.112625"
   y="0px"
   x="0px"
   id="Capa_1"
   version="1.1"><metadata
     id="metadata53"><rdf:RDF><cc:Work
         rdf:about=""><dc:format>image/svg+xml</dc:format><dc:type
           rdf:resource="http://purl.org/dc/dcmitype/StillImage" /><dc:title></dc:title></cc:Work></rdf:RDF></metadata><defs
     id="defs51" /><g
     transform="matrix(0.03931643,0,0,0.03931643,9.9033122,9.9033171)"
     id="g16"><path
       style="fill:#ffffff"
       id="path2"
       d="m 92.723,274.945 c -3.178,3.178 -5.747,9.388 -5.747,13.875 v 58.444 h 33.929 v -92.373 c 0,-4.487 -2.569,-5.56 -5.747,-2.382 z" /><path
       style="fill:#ffffff"
       id="path4"
       d="m 241.752,219.573 c -3.17,3.178 -5.747,9.389 -5.747,13.884 v 113.816 h 33.929 V 199.487 c 0,-4.487 -2.569,-5.552 -5.747,-2.374 z" /><path
       style="fill:#ffffff"
       id="path6"
       d="m 291.418,169.834 c -3.178,3.17 -5.755,9.38 -5.755,13.867 V 347.264 H 317.21 V 152.212 c 0,-4.487 -2.577,-5.56 -5.755,-2.382 z" /><path
       style="fill:#ffffff"
       id="path8"
       d="m 193.078,268.239 c 0,0 -1.512,1.52 -3.381,3.39 -1.861,1.87 -3.373,7.031 -3.373,11.518 v 64.118 h 33.929 v -98.047 c 0,-4.487 -2.577,-5.56 -5.755,-2.382 z" /><path
       style="fill:#ffffff"
       id="path10"
       d="m 142.405,250.998 c -3.178,-3.17 -5.755,-2.105 -5.755,2.382 v 93.885 h 33.929 v -60.03 c 0,-4.487 -2.439,-10.559 -5.454,-13.558 l -5.454,-5.43 z" /><path
       style="fill:#ffffff"
       id="path12"
       d="m 50.023,317.669 -10.957,10.974 c -3.17,3.178 -5.739,8.633 -5.739,12.193 v 6.438 H 71.198 V 304.59 c 0,-4.487 -2.569,-5.552 -5.747,-2.374 z" /><path
       style="fill:#ffffff"
       id="path14"
       d="m 358.121,150.724 c 3.17,3.178 5.747,2.105 5.747,-2.382 V 32.193 c 0,-8.316 -7.966,-15.599 -16.233,-15.599 H 232.16 c -4.487,0 -5.56,2.577 -2.382,5.755 l 41.074,41.106 -16.753,16.68 -77.701,77.774 L 135.3,116.82 c -3.178,-3.178 -8.316,-3.17 -11.494,0 L 9.519,231.189 C -3.178,243.894 -3.17,264.484 9.527,277.18 l 0.797,0.805 c 12.697,12.697 33.287,12.697 45.975,-0.008 l 73.247,-73.287 41.098,41.057 c 3.178,3.17 8.324,3.17 11.502,0 L 317.625,110.244 Z" /></g><g
     transform="translate(0,-329.75538)"
     id="g18" /><g
     transform="translate(0,-329.75538)"
     id="g20" /><g
     transform="translate(0,-329.75538)"
     id="g22" /><g
     transform="translate(0,-329.75538)"
     id="g24" /><g
     transform="translate(0,-329.75538)"
     id="g26" /><g
     transform="translate(0,-329.75538)"
     id="g28" /><g
     transform="translate(0,-329.75538)"
     id="g30" /><g
     transform="translate(0,-329.75538)"
     id="g32" /><g
     transform="translate(0,-329.75538)"
     id="g34" /><g
     transform="translate(0,-329.75538)"
     id="g36" /><g
     transform="translate(0,-329.75538)"
     id="g38" /><g
     transform="translate(0,-329.75538)"
     id="g40" /><g
     transform="translate(0,-329.75538)"
     id="g42" /><g
     transform="translate(0,-329.75538)"
     id="g44" /><g
     transform="translate(0,-329.75538)"
     id="g46" /></svg>