<?xml version="1.0" encoding="UTF-8" standalone="no"?>
<svg
   xmlns:dc="http://purl.org/dc/elements/1.1/"
   xmlns:cc="http://creativecommons.org/ns#"
   xmlns:rdf="http://www.w3.org/1999/02/22-rdf-syntax-ns#"
   xmlns:svg="http://www.w3.org/2000/svg"
   xmlns="http://www.w3.org/2000/svg"
   xml:space="preserve"
   viewBox="0 0 512.9536 512.9536"
   height="20"
   width="20"
   y="0px"
   x="0px"
   id="Capa_1"
   version="1.1"><metadata
     id="metadata45"><rdf:RDF><cc:Work
         rdf:about=""><dc:format>image/svg+xml</dc:format><dc:type
           rdf:resource="http://purl.org/dc/dcmitype/StillImage" /><dc:title></dc:title></cc:Work></rdf:RDF></metadata><defs
     id="defs43" /><g
     transform="translate(13.870862,13.8698)"
     id="g8"><g
       id="g6"><path
         style="fill:#b6b6b6"
         id="path2"
         d="M 363.909,181.955 C 363.909,81.473 282.44,0 181.956,0 81.474,0 0.001,81.473 0.001,181.955 c 0,100.482 81.473,181.951 181.955,181.951 100.484,0 181.953,-81.469 181.953,-181.951 z M 181.956,318.416 c -75.252,0 -136.465,-61.208 -136.465,-136.46 0,-75.252 61.213,-136.465 136.465,-136.465 75.25,0 136.468,61.213 136.468,136.465 0,75.252 -61.218,136.46 -136.468,136.46 z" /><path
         style="fill:#b6b6b6"
         id="path4"
         d="M 471.882,407.567 360.567,296.243 c -16.586,25.795 -38.536,47.734 -64.331,64.321 L 407.56,471.888 c 17.772,17.768 46.587,17.768 64.321,0 17.773,-17.739 17.773,-46.554 0.001,-64.321 z" /></g></g><g
     transform="translate(-0.001,-1351.8614)"
     id="g10" /><g
     transform="translate(-0.001,-1351.8614)"
     id="g12" /><g
     transform="translate(-0.001,-1351.8614)"
     id="g14" /><g
     transform="translate(-0.001,-1351.8614)"
     id="g16" /><g
     transform="translate(-0.001,-1351.8614)"
     id="g18" /><g
     transform="translate(-0.001,-1351.8614)"
     id="g20" /><g
     transform="translate(-0.001,-1351.8614)"
     id="g22" /><g
     transform="translate(-0.001,-1351.8614)"
     id="g24" /><g
     transform="translate(-0.001,-1351.8614)"
     id="g26" /><g
     transform="translate(-0.001,-1351.8614)"
     id="g28" /><g
     transform="translate(-0.001,-1351.8614)"
     id="g30" /><g
     transform="translate(-0.001,-1351.8614)"
     id="g32" /><g
     transform="translate(-0.001,-1351.8614)"
     id="g34" /><g
     transform="translate(-0.001,-1351.8614)"
     id="g36" /><g
     transform="translate(-0.001,-1351.8614)"
     id="g38" /></svg>