<?xml version="1.0" encoding="iso-8859-1"?>
<!-- Generator: Adobe Illustrator 16.0.0, SVG Export Plug-In . SVG Version: 6.00 Build 0)  -->
<!DOCTYPE svg PUBLIC "-//W3C//DTD SVG 1.1//EN" "http://www.w3.org/Graphics/SVG/1.1/DTD/svg11.dtd">
<svg xmlns="http://www.w3.org/2000/svg" xmlns:xlink="http://www.w3.org/1999/xlink" version="1.1" id="Capa_1" x="0px" y="0px" width="512px" height="512px" viewBox="0 0 612 612" style="enable-background:new 0 0 612 612;" xml:space="preserve">
<g>
	<g id="_x34_0">
		<g>
			<path d="M605.086,279.459c-12.21-16.071-37.88-39.02-37.88-39.02s-62.741-59.983-136.772-100.253     c-69.14-37.475-180.206-39.755-256.112,1.582c-42.955,23.463-74.51,40.455-101.246,65.94     c-22.912,21.956-45.162,36.004-45.162,36.004S0,285.012,0,306.637c0,21.404,27.656,62.337,27.656,62.337l79.438,68.919     c0,0,46.265,29.421,96.208,47.883c35.857,13.276,145.525,31.407,233.826-15.703c76.9-41.08,132.616-94.884,132.616-94.884     s24.641-27.509,36.152-41.741C613.655,323.702,614.685,292.073,605.086,279.459z M300.612,439.842     c-70.795,0-128.204-57.408-128.204-128.24c0-70.795,57.409-128.277,128.204-128.277s128.203,57.482,128.203,128.277     C428.815,382.434,371.407,439.842,300.612,439.842z M302.635,252.575c-32.694,0-59.173,26.516-59.173,59.21     c0,32.694,26.479,59.211,59.173,59.211s59.174-26.517,59.174-59.211C361.809,279.091,335.329,252.575,302.635,252.575z" fill="#b6b6b6"/>
		</g>
	</g>
</g>
<g>
</g>
<g>
</g>
<g>
</g>
<g>
</g>
<g>
</g>
<g>
</g>
<g>
</g>
<g>
</g>
<g>
</g>
<g>
</g>
<g>
</g>
<g>
</g>
<g>
</g>
<g>
</g>
<g>
</g>
</svg>
