<?xml version="1.0" encoding="UTF-8" standalone="no"?>
<svg
   xmlns:dc="http://purl.org/dc/elements/1.1/"
   xmlns:cc="http://creativecommons.org/ns#"
   xmlns:rdf="http://www.w3.org/1999/02/22-rdf-syntax-ns#"
   xmlns:svg="http://www.w3.org/2000/svg"
   xmlns="http://www.w3.org/2000/svg"
   height="48"
   width="48"
   xml:space="preserve"
   viewBox="0 0 45.88125 45.88125"
   y="0px"
   x="0px"
   id="Capa_1"
   version="1.1"><metadata
     id="metadata45"><rdf:RDF><cc:Work
         rdf:about=""><dc:format>image/svg+xml</dc:format><dc:type
           rdf:resource="http://purl.org/dc/dcmitype/StillImage" /><dc:title></dc:title></cc:Work></rdf:RDF></metadata><defs
     id="defs43" /><g
     transform="matrix(0.03965234,0,0,0.03965234,13.237697,13.237697)"
     id="g8"><g
       id="g6"><path
         style="fill:#ffffff"
         id="path2"
         d="m 347.7,263.75 h -66.5 c -18.2,0 -33,14.8 -33,33 v 51 c 0,18.2 14.8,33 33,33 h 66.5 c 18.2,0 33,-14.8 33,-33 v -51 c 0,-18.2 -14.8,-33 -33,-33 z m 9,84 c 0,5 -4.1,9 -9,9 h -66.5 c -5,0 -9,-4.1 -9,-9 v -51 c 0,-5 4.1,-9 9,-9 h 66.5 c 5,0 9,4.1 9,9 z" /><path
         style="fill:#ffffff"
         id="path4"
         d="m 489.4,171.05 c 0,-2.1 -0.5,-4.1 -1.6,-5.9 L 415,37.15 c -2.1,-3.7 -6.1,-6.1 -10.4,-6.1 H 84.7 c -4.3,0 -8.3,2.3 -10.4,6.1 l -72.7,128 c -1,1.8 -1.6,3.8 -1.6,5.9 0,28.7 17.3,53.3 42,64.2 v 211.1 c 0,6.6 5.4,12 12,12 h 66.3 c 0.1,0 0.2,0 0.3,0 h 93 c 0.1,0 0.2,0 0.3,0 h 221.4 c 6.6,0 12,-5.4 12,-12 v -209.6 c 0,-0.5 0,-0.9 -0.1,-1.3 24.8,-10.9 42.2,-35.6 42.2,-64.4 z M 91.7,55.15 h 305.9 l 56.9,100.1 H 34.9 Z m 256.6,124 c -3.8,21.6 -22.7,38 -45.4,38 -22.7,0 -41.6,-16.4 -45.4,-38 z m -116.3,0 c -3.8,21.6 -22.7,38 -45.4,38 -22.7,0 -41.6,-16.4 -45.5,-38 z m -207.2,0 h 90.9 c -3.8,21.6 -22.8,38 -45.5,38 -22.7,0.1 -41.6,-16.4 -45.4,-38 z m 176.8,255.2 h -69 v -129.5 c 0,-9.4 7.6,-17.1 17.1,-17.1 h 34.9 c 9.4,0 17.1,7.6 17.1,17.1 v 129.5 z m 221.7,0 H 225.6 v -129.5 c 0,-22.6 -18.4,-41.1 -41.1,-41.1 h -34.9 c -22.6,0 -41.1,18.4 -41.1,41.1 v 129.6 H 66 v -193.3 c 1.4,0.1 2.8,0.1 4.2,0.1 24.2,0 45.6,-12.3 58.2,-31 12.6,18.7 34,31 58.2,31 24.2,0 45.5,-12.3 58.2,-31 12.6,18.7 34,31 58.1,31 24.2,0 45.5,-12.3 58.1,-31 12.6,18.7 34,31 58.2,31 1.4,0 2.7,-0.1 4.1,-0.1 z m -4.1,-217.1 c -22.7,0 -41.6,-16.4 -45.4,-38 h 90.9 c -3.9,21.5 -22.8,38 -45.5,38 z" /></g></g><g
     transform="translate(0,-443.51875)"
     id="g10" /><g
     transform="translate(0,-443.51875)"
     id="g12" /><g
     transform="translate(0,-443.51875)"
     id="g14" /><g
     transform="translate(0,-443.51875)"
     id="g16" /><g
     transform="translate(0,-443.51875)"
     id="g18" /><g
     transform="translate(0,-443.51875)"
     id="g20" /><g
     transform="translate(0,-443.51875)"
     id="g22" /><g
     transform="translate(0,-443.51875)"
     id="g24" /><g
     transform="translate(0,-443.51875)"
     id="g26" /><g
     transform="translate(0,-443.51875)"
     id="g28" /><g
     transform="translate(0,-443.51875)"
     id="g30" /><g
     transform="translate(0,-443.51875)"
     id="g32" /><g
     transform="translate(0,-443.51875)"
     id="g34" /><g
     transform="translate(0,-443.51875)"
     id="g36" /><g
     transform="translate(0,-443.51875)"
     id="g38" /></svg>