<?xml version="1.0" encoding="UTF-8" standalone="no"?>
<svg
   xmlns:dc="http://purl.org/dc/elements/1.1/"
   xmlns:cc="http://creativecommons.org/ns#"
   xmlns:rdf="http://www.w3.org/1999/02/22-rdf-syntax-ns#"
   xmlns:svg="http://www.w3.org/2000/svg"
   xmlns="http://www.w3.org/2000/svg"
   id="svg8"
   version="1.1"
   viewBox="0 0 210 297"
   height="297mm"
   width="210mm">
  <defs
     id="defs2" />
  <metadata
     id="metadata5">
    <rdf:RDF>
      <cc:Work
         rdf:about="">
        <dc:format>image/svg+xml</dc:format>
        <dc:type
           rdf:resource="http://purl.org/dc/dcmitype/StillImage" />
        <dc:title></dc:title>
      </cc:Work>
    </rdf:RDF>
  </metadata>
  <g
     id="layer1">
    <path
       d="m 168.94784,156.66899 a 13.512646,54.050593 43.959746 0 0 -26.41545,22.78517 13.512646,54.050593 43.959746 0 0 -27.79261,48.28698 13.512646,54.050593 43.959746 0 0 47.24621,-29.5274 13.512646,54.050593 43.959746 0 0 17.80201,-21.30568 c -0.002,-0.005 -0.005,-0.0106 -0.007,-0.016 -0.16828,-0.4255 -0.29639,-0.86639 -0.45475,-1.29553 -0.10215,-0.0907 -0.20195,-0.18502 -0.30334,-0.27698 -0.15767,0.0553 -0.34333,-0.10743 -0.50643,-0.1726 -0.46193,-0.18449 -0.91117,-0.39897 -1.36684,-0.59842 -1.62711,-0.99698 -0.48689,-0.22378 -1.8924,-1.57716 -0.0577,-0.0282 -0.11444,-0.0552 -0.17466,-0.0863 0.0594,0.0698 0.11295,0.13587 0.14573,0.18707 0.0786,0.12274 -0.24231,-0.16266 -0.35967,-0.24908 -0.12172,-0.0896 -0.25677,-0.16635 -0.38189,-0.25322 -0.0872,-0.0471 -0.1194,-0.0673 -0.0594,-0.0439 -0.0214,-0.0161 -0.0444,-0.0308 -0.0646,-0.0481 0.0377,0.0229 0.0747,0.0447 0.11162,0.0667 0.0217,0.009 0.13899,0.0569 0.17104,0.0703 -0.23102,-0.18148 -0.53624,-0.43482 -0.42116,-0.28215 0.0405,0.0537 0.0872,0.10126 0.13798,0.14469 -0.0469,-0.0285 -0.0909,-0.0533 -0.13901,-0.0832 -0.3267,-0.20295 -0.68041,-0.36781 -0.97979,-0.60926 -0.31487,-0.25395 -1.2091,-1.05199 -0.84956,-0.86662 1.15328,0.59459 2.17902,1.40945 3.26854,2.11409 -0.33705,-0.13473 -0.4037,-0.16468 -0.60668,-0.24908 0.0607,0.0575 0.14839,0.13692 0.20153,0.1881 1.49947,0.7322 2.15068,0.47357 2.32286,-0.34727 -0.10154,-0.22431 -0.20704,-0.44667 -0.32814,-0.66094 -0.08,-0.1415 -0.2576,-0.20374 -0.35502,-0.33383 -0.62155,-0.82997 -1.06761,-1.6483 -1.6521,-2.4939 -0.0795,-0.115 -0.20262,-0.19877 -0.26872,-0.32195 -0.39305,-0.73249 -0.73575,-1.49118 -1.1038,-2.23655 -0.47709,-0.7075 -0.92801,-1.36313 -1.30018,-2.15801 -0.27292,-0.58292 -0.44977,-1.20698 -0.70745,-1.79679 -0.01,-0.0223 -0.0389,0.0293 -0.0584,0.0439 -0.19856,-0.48922 -0.39726,-0.97838 -0.59583,-1.4676 -0.42183,-0.39971 -0.43367,-0.87202 -0.40152,-1.35135 -0.35627,-0.4621 -0.84443,-0.88085 -0.90589,-1.4397 -0.32779,-0.54117 -0.63923,-1.09229 -0.92294,-1.65726 -0.0131,-0.0261 -0.0207,-0.0545 -0.0326,-0.0811 z m 5.69784,15.94579 c 0.0483,0.038 0.10572,0.0841 0.14108,0.10956 0.10125,0.0565 0.20125,0.11169 0.2961,0.16071 -0.04,-0.047 -0.0814,-0.0933 -0.12712,-0.14314 -0.0925,-0.0386 -0.25196,-0.10292 -0.31006,-0.12713 z"
       style="fill:#c4c4c4;fill-opacity:1;fill-rule:evenodd;stroke:none;stroke-width:0.18546771;stroke-miterlimit:4;stroke-dasharray:none;stroke-opacity:1"
       id="path4491-5-7-0-7-2" />
    <path
       d="m 121.59601,116.44786 a 50.14589,12.542243 45.475207 0 0 -4.08842,1.13881 50.14589,12.542243 45.475207 0 0 26.76849,44.87846 50.14589,12.542243 45.475207 0 0 26.96759,22.17539 c 0.0116,-0.25827 0.0311,-0.49181 0.0572,-0.70292 -0.19769,-0.68778 -0.37516,-1.38411 -0.57296,-2.06998 -0.30413,-1.29093 -0.54085,-2.59332 -0.56733,-3.92644 -0.0101,-0.50947 0.0343,-0.99818 0.0745,-1.49126 -0.004,-0.38924 -0.002,-0.75588 0.0202,-0.75838 0.009,-0.001 0.0169,-0.002 0.0258,-0.003 -0.0218,-0.4225 -0.19179,-0.75591 -0.42726,-1.0156 -3.38786,-0.81686 -1.04541,-1.153 0,0 0.7338,0.17693 1.74572,0.37649 3.0901,0.58806 0.041,-0.0653 0.0689,-0.10758 0.11337,-0.17917 0.0175,-0.0282 0.55251,-0.84424 0.34012,-0.4457 -0.0804,0.1508 -0.23909,0.39868 -0.39212,0.63469 0.0211,0.003 0.0387,0.007 0.06,0.01 0.34601,-0.49355 0.66488,-1.00889 1.00582,-1.50647 1.24922,-0.92952 0.67098,-0.58556 1.68794,-1.11524 0.36061,-0.18783 0.68383,-0.33626 0.97443,-0.45013 -0.0157,-0.0815 -0.0201,-0.12149 0.01,-0.0329 0.003,0.0102 0.005,0.0155 0.008,0.0255 0.1051,-0.0409 0.20341,-0.0748 0.29983,-0.10652 -0.007,-0.19744 -0.0123,-0.39735 -0.0122,-0.60278 7.1e-4,-0.95468 -0.0162,-1.63463 0.004,-2.13331 -2.05542,-0.0113 -3.01826,-0.0282 -0.004,-0.0564 0.002,-2e-5 0.003,2e-5 0.005,0 0.0395,-0.83916 0.20182,-1.10304 0.80063,-1.07451 0.5562,0.0265 1.50875,0.29273 3.06761,0.55419 -1.14537,-1.44665 -3.94832,-3.62509 -1.88516,-3.99173 A 50.14589,12.542243 45.475207 0 0 161.28303,143.9866 50.14589,12.542243 45.475207 0 0 121.5962,116.448 Z m 49.21291,63.35026 c 0.0187,0.0481 0.19381,0.39501 0.3448,0.67102 0.002,-0.0145 0.006,-0.027 0.009,-0.0407 -0.0722,-0.12945 -0.0999,-0.17851 -0.33074,-0.59493 -0.0215,-0.0388 -0.0279,-0.0481 -0.023,-0.0353 z m 17.58113,8.49249 c -0.0857,0.0394 -0.18286,0.0827 -0.24033,0.11241 -0.29554,0.0798 -0.54424,0.14071 -0.7833,0.19585 0.31653,0.15018 0.66467,-0.063 1.02363,-0.30826 z"
       style="fill:#c4c4c4;fill-opacity:1;fill-rule:evenodd;stroke:none;stroke-width:0.17210883;stroke-miterlimit:4;stroke-dasharray:none;stroke-opacity:1"
       id="path4491-5-7-0-7-2-2" />
    <circle
       r="13.512647"
       cy="171.6064"
       cx="59.62574"
       id="path4491"
       style="fill:#c4c4c4;fill-opacity:1;fill-rule:evenodd;stroke:none;stroke-width:0.09273385;stroke-miterlimit:4;stroke-dasharray:none;stroke-opacity:1" />
    <circle
       r="13.512648"
       cy="171.66309"
       cx="91.432426"
       id="path4491-5"
       style="fill:#c4c4c4;fill-opacity:1;fill-rule:evenodd;stroke:none;stroke-width:0.09273385;stroke-miterlimit:4;stroke-dasharray:none;stroke-opacity:1" />
    <circle
       r="13.512649"
       cy="171.5119"
       cx="123.22024"
       id="path4491-5-7"
       style="fill:#c4c4c4;fill-opacity:1;fill-rule:evenodd;stroke:none;stroke-width:0.09273385;stroke-miterlimit:4;stroke-dasharray:none;stroke-opacity:1" />
    <circle
       r="13.512649"
       cy="171.51147"
       cx="167.37054"
       id="path4491-5-7-0-7"
       style="fill:#c4c4c4;fill-opacity:1;fill-rule:evenodd;stroke:none;stroke-width:0.09273385;stroke-miterlimit:4;stroke-dasharray:none;stroke-opacity:1" />
  </g>
</svg>
