<svg class="menu_svg" xmlns="http://www.w3.org/2000/svg" id="Capa_1" viewBox="0 0 48 48" x="0px" y="0px" width="48" height="48" version="1.1" xmlns:xml="http://www.w3.org/XML/1998/namespace" xml:space="preserve"><defs id="defs39"></defs><g id="g4" style="stroke: #ffffff; stroke-dasharray: none; stroke-miterlimit: 4; stroke-opacity: 1; stroke-width: 22.4466;" transform="matrix(0.0490052 0 0 0.0490052 13.4889 13.489)"><path id="path2" style="fill: none; stroke: #ffffff; stroke-dasharray: none; stroke-miterlimit: 4; stroke-opacity: 1; stroke-width: 22.4466;" d="m 414.101 373.866 l -106.246 -56.188 l -4.907 -15.332 c -1.469 -5.137 -3.794 -10.273 -8.576 -11.623 c -1.519 -0.428 -3.441 -3.201 -3.689 -5.137 l -2.836 -29.813 c -0.156 -2.553 0.868 -4.844 2.216 -6.453 c 8.14 -9.754 12.577 -21.051 14.454 -33.967 c 0.944 -6.494 4.323 -12.483 6.059 -18.879 l 6.812 -35.649 c 0.711 -4.681 0.573 -8.289 -4.659 -10.103 c -1.443 -0.503 -2.699 -2.894 -2.699 -6.479 l 0.069 -67.264 C 308.988 60.699 300.368 48.11 288.142 39.348 C 264.788 22.609 222.967 30.371 236.616 3.067 C 237.422 1.46 237.165 -1.332 231.554 0.732 C 210.618 8.435 154.853 28.789 140.844 39.348 C 128.306 48.797 120 60.699 118.887 76.979 l 0.069 67.264 c 0 2.96 -1.255 5.976 -2.7 6.479 c -5.233 1.813 -5.37 5.422 -4.659 10.103 l 6.814 35.649 c 1.732 6.396 5.113 12.386 6.058 18.879 c 1.875 12.916 6.315 24.213 14.453 33.967 c 1.347 1.609 2.372 3.9 2.216 6.453 l -2.836 29.813 c -0.249 1.936 -2.174 4.709 -3.69 5.137 c -4.783 1.35 -7.109 6.486 -8.577 11.623 l -4.909 15.332 l -106.25 56.188 c -2.742 1.449 -4.457 4.297 -4.457 7.397 v 39.343 c 0 4.621 3.748 8.368 8.37 8.368 h 391.4 c 4.622 0 8.37 -3.747 8.37 -8.368 v -39.343 c -0.002 -3.1 -1.717 -5.948 -4.458 -7.397 Z"></path></g><g id="g6" transform="translate(0 -388.759)"></g><g id="g8" transform="translate(0 -388.759)"></g><g id="g10" transform="translate(0 -388.759)"></g><g id="g12" transform="translate(0 -388.759)"></g><g id="g14" transform="translate(0 -388.759)"></g><g id="g16" transform="translate(0 -388.759)"></g><g id="g18" transform="translate(0 -388.759)"></g><g id="g20" transform="translate(0 -388.759)"></g><g id="g22" transform="translate(0 -388.759)"></g><g id="g24" transform="translate(0 -388.759)"></g><g id="g26" transform="translate(0 -388.759)"></g><g id="g28" transform="translate(0 -388.759)"></g><g id="g30" transform="translate(0 -388.759)"></g><g id="g32" transform="translate(0 -388.759)"></g><g id="g34" transform="translate(0 -388.759)"></g></svg>